<svg width="1167" height="204" viewBox="0 0 1167 204" fill="none" xmlns="http://www.w3.org/2000/svg">
<path d="M65.6094 181H51.1953L28.3438 158.109H21.1953V147.875H28.3438L51.1953 124.984H65.6094L36.8203 152.992L65.6094 181ZM17.1328 181H6.97656V124.984H17.1328V181ZM117.641 181H107.484V157.562C107.484 156.234 107.25 155.049 106.781 154.008C106.339 152.94 105.727 152.029 104.945 151.273C104.164 150.518 103.24 149.945 102.172 149.555C101.13 149.138 99.9974 148.93 98.7734 148.93H81V181H70.8438V143.812C70.8438 143.109 70.974 142.458 71.2344 141.859C71.4948 141.234 71.8594 140.701 72.3281 140.258C72.7969 139.789 73.3438 139.424 73.9688 139.164C74.5938 138.904 75.2578 138.773 75.9609 138.773H98.8516C100.128 138.773 101.469 138.917 102.875 139.203C104.307 139.49 105.714 139.958 107.094 140.609C108.5 141.234 109.828 142.042 111.078 143.031C112.354 143.995 113.474 145.18 114.438 146.586C115.427 147.966 116.208 149.568 116.781 151.391C117.354 153.214 117.641 155.271 117.641 157.562V181ZM172.484 166.742C172.484 168.487 172.263 170.062 171.82 171.469C171.378 172.849 170.792 174.073 170.062 175.141C169.333 176.182 168.487 177.081 167.523 177.836C166.56 178.565 165.544 179.164 164.477 179.633C163.435 180.102 162.367 180.453 161.273 180.688C160.206 180.896 159.19 181 158.227 181H139.906C138.5 181 136.964 180.753 135.297 180.258C133.63 179.763 132.081 178.956 130.648 177.836C129.242 176.69 128.057 175.219 127.094 173.422C126.156 171.599 125.688 169.372 125.688 166.742V152.992C125.688 150.388 126.156 148.188 127.094 146.391C128.057 144.568 129.242 143.096 130.648 141.977C132.081 140.831 133.63 140.01 135.297 139.516C136.964 139.021 138.5 138.773 139.906 138.773H158.227C160.831 138.773 163.044 139.242 164.867 140.18C166.69 141.117 168.161 142.302 169.281 143.734C170.401 145.141 171.208 146.677 171.703 148.344C172.224 150.01 172.484 151.56 172.484 152.992V166.742ZM162.328 153.07C162.328 151.664 161.977 150.622 161.273 149.945C160.57 149.268 159.555 148.93 158.227 148.93H139.984C138.63 148.93 137.602 149.281 136.898 149.984C136.195 150.661 135.844 151.664 135.844 152.992V166.742C135.844 168.07 136.195 169.086 136.898 169.789C137.602 170.492 138.63 170.844 139.984 170.844H158.227C159.607 170.844 160.635 170.492 161.312 169.789C161.99 169.086 162.328 168.07 162.328 166.742V153.07ZM250.688 138.773C249.073 142.393 247.328 145.961 245.453 149.477C243.578 152.966 241.612 156.273 239.555 159.398C237.523 162.523 235.44 165.414 233.305 168.07C231.169 170.701 229.047 172.979 226.938 174.906C224.854 176.807 222.81 178.305 220.805 179.398C218.826 180.466 216.951 181 215.18 181C214.451 181 213.773 180.87 213.148 180.609C212.523 180.349 211.977 179.997 211.508 179.555C211.039 179.086 210.674 178.539 210.414 177.914C210.154 177.289 210.023 176.612 210.023 175.883V156.938L189.867 179.477C189.346 179.997 188.773 180.388 188.148 180.648C187.549 180.883 186.924 181 186.273 181C185.57 181 184.906 180.87 184.281 180.609C183.682 180.349 183.148 179.997 182.68 179.555C182.211 179.086 181.833 178.539 181.547 177.914C181.286 177.289 181.156 176.612 181.156 175.883V138.773H191.312V162.836L211.547 140.219C212.276 139.49 213.135 139.034 214.125 138.852C215.141 138.643 216.13 138.747 217.094 139.164C218.057 139.555 218.812 140.18 219.359 141.039C219.932 141.872 220.219 142.797 220.219 143.812V167.953C222.406 165.844 224.385 163.617 226.156 161.273C227.927 158.93 229.568 156.521 231.078 154.047C232.615 151.547 234.047 149.021 235.375 146.469C236.729 143.891 238.044 141.326 239.32 138.773H250.688ZM333.148 143.734C333.148 146.052 332.849 148.122 332.25 149.945C331.677 151.768 330.909 153.383 329.945 154.789C328.982 156.169 327.849 157.354 326.547 158.344C325.271 159.333 323.943 160.154 322.562 160.805C321.182 161.43 319.776 161.885 318.344 162.172C316.938 162.458 315.609 162.602 314.359 162.602H310.258V181H300.023V162.602H295.961C294.711 162.602 293.37 162.458 291.938 162.172C290.531 161.885 289.125 161.43 287.719 160.805C286.339 160.154 285.01 159.333 283.734 158.344C282.458 157.354 281.326 156.169 280.336 154.789C279.372 153.383 278.591 151.768 277.992 149.945C277.419 148.096 277.133 146.026 277.133 143.734V124.984H287.289V143.734C287.289 145.062 287.497 146.26 287.914 147.328C288.331 148.37 288.917 149.268 289.672 150.023C290.427 150.779 291.339 151.365 292.406 151.781C293.5 152.172 294.711 152.367 296.039 152.367H314.359C315.323 152.211 316.312 152.016 317.328 151.781C318.344 151.521 319.268 151.091 320.102 150.492C320.935 149.893 321.625 149.06 322.172 147.992C322.719 146.924 322.992 145.505 322.992 143.734V124.984H333.148V143.734ZM386.625 166.742C386.625 168.487 386.404 170.062 385.961 171.469C385.518 172.849 384.932 174.073 384.203 175.141C383.474 176.182 382.628 177.081 381.664 177.836C380.701 178.565 379.685 179.164 378.617 179.633C377.576 180.102 376.508 180.453 375.414 180.688C374.346 180.896 373.331 181 372.367 181H354.047C352.641 181 351.104 180.753 349.438 180.258C347.771 179.763 346.221 178.956 344.789 177.836C343.383 176.69 342.198 175.219 341.234 173.422C340.297 171.599 339.828 169.372 339.828 166.742V152.992C339.828 150.388 340.297 148.188 341.234 146.391C342.198 144.568 343.383 143.096 344.789 141.977C346.221 140.831 347.771 140.01 349.438 139.516C351.104 139.021 352.641 138.773 354.047 138.773H372.367C374.971 138.773 377.185 139.242 379.008 140.18C380.831 141.117 382.302 142.302 383.422 143.734C384.542 145.141 385.349 146.677 385.844 148.344C386.365 150.01 386.625 151.56 386.625 152.992V166.742ZM376.469 153.07C376.469 151.664 376.117 150.622 375.414 149.945C374.711 149.268 373.695 148.93 372.367 148.93H354.125C352.771 148.93 351.742 149.281 351.039 149.984C350.336 150.661 349.984 151.664 349.984 152.992V166.742C349.984 168.07 350.336 169.086 351.039 169.789C351.742 170.492 352.771 170.844 354.125 170.844H372.367C373.747 170.844 374.776 170.492 375.453 169.789C376.13 169.086 376.469 168.07 376.469 166.742V153.07ZM441.469 175.883C441.469 176.612 441.339 177.289 441.078 177.914C440.818 178.539 440.453 179.086 439.984 179.555C439.542 179.997 439.008 180.349 438.383 180.609C437.784 180.87 437.133 181 436.43 181H413.461C412.211 181 410.87 180.857 409.438 180.57C408.031 180.284 406.638 179.828 405.258 179.203C403.878 178.552 402.536 177.745 401.234 176.781C399.958 175.792 398.839 174.607 397.875 173.227C396.911 171.82 396.13 170.206 395.531 168.383C394.958 166.56 394.672 164.503 394.672 162.211V138.773H404.828V162.211C404.828 163.539 405.049 164.737 405.492 165.805C405.961 166.846 406.586 167.745 407.367 168.5C408.148 169.255 409.06 169.841 410.102 170.258C411.169 170.648 412.315 170.844 413.539 170.844H431.312V138.773H441.469V175.883ZM487.953 148.93H465.102C463.721 148.93 462.68 149.281 461.977 149.984C461.273 150.661 460.922 151.664 460.922 152.992V181H450.766V152.992C450.766 151.247 450.987 149.685 451.43 148.305C451.872 146.924 452.458 145.714 453.188 144.672C453.943 143.604 454.802 142.706 455.766 141.977C456.729 141.221 457.732 140.609 458.773 140.141C459.841 139.672 460.909 139.333 461.977 139.125C463.07 138.891 464.086 138.773 465.023 138.773H487.953V148.93ZM592.719 124.984L583.344 177.484C583.135 178.526 582.667 179.424 581.938 180.18C581.208 180.935 580.323 181.417 579.281 181.625C578.214 181.807 577.198 181.69 576.234 181.273C575.297 180.857 574.555 180.206 574.008 179.32L555.414 148.773L536.781 179.32C536.339 180.076 535.727 180.661 534.945 181.078C534.19 181.495 533.37 181.703 532.484 181.703C531.26 181.703 530.18 181.312 529.242 180.531C528.305 179.75 527.732 178.734 527.523 177.484L518.07 124.984H528.383L535.102 161.977L551.117 136.43C551.56 135.674 552.159 135.089 552.914 134.672C553.695 134.255 554.529 134.047 555.414 134.047C556.299 134.047 557.12 134.255 557.875 134.672C558.63 135.089 559.255 135.674 559.75 136.43L575.688 161.977L582.406 124.984H592.719ZM645.141 166.742C645.141 168.487 644.919 170.062 644.477 171.469C644.034 172.849 643.448 174.073 642.719 175.141C641.99 176.182 641.143 177.081 640.18 177.836C639.216 178.565 638.201 179.164 637.133 179.633C636.091 180.102 635.023 180.453 633.93 180.688C632.862 180.896 631.846 181 630.883 181H612.562C611.156 181 609.62 180.753 607.953 180.258C606.286 179.763 604.737 178.956 603.305 177.836C601.898 176.69 600.714 175.219 599.75 173.422C598.812 171.599 598.344 169.372 598.344 166.742V152.992C598.344 150.388 598.812 148.188 599.75 146.391C600.714 144.568 601.898 143.096 603.305 141.977C604.737 140.831 606.286 140.01 607.953 139.516C609.62 139.021 611.156 138.773 612.562 138.773H630.883C633.487 138.773 635.701 139.242 637.523 140.18C639.346 141.117 640.818 142.302 641.938 143.734C643.057 145.141 643.865 146.677 644.359 148.344C644.88 150.01 645.141 151.56 645.141 152.992V166.742ZM634.984 153.07C634.984 151.664 634.633 150.622 633.93 149.945C633.227 149.268 632.211 148.93 630.883 148.93H612.641C611.286 148.93 610.258 149.281 609.555 149.984C608.852 150.661 608.5 151.664 608.5 152.992V166.742C608.5 168.07 608.852 169.086 609.555 169.789C610.258 170.492 611.286 170.844 612.641 170.844H630.883C632.263 170.844 633.292 170.492 633.969 169.789C634.646 169.086 634.984 168.07 634.984 166.742V153.07ZM690.766 148.93H667.914C666.534 148.93 665.492 149.281 664.789 149.984C664.086 150.661 663.734 151.664 663.734 152.992V181H653.578V152.992C653.578 151.247 653.799 149.685 654.242 148.305C654.685 146.924 655.271 145.714 656 144.672C656.755 143.604 657.615 142.706 658.578 141.977C659.542 141.221 660.544 140.609 661.586 140.141C662.654 139.672 663.721 139.333 664.789 139.125C665.883 138.891 666.898 138.773 667.836 138.773H690.766V148.93ZM735.883 148.93H718.148V181H707.875V148.93H694.672V138.773H707.875V124.984H718.148V138.773H735.883V148.93ZM789.516 181H779.359V152.992C779.359 151.664 779.021 150.661 778.344 149.984C777.667 149.281 776.651 148.93 775.297 148.93H756.977V138.773H775.297C776.26 138.773 777.276 138.891 778.344 139.125C779.411 139.333 780.466 139.672 781.508 140.141C782.576 140.609 783.591 141.221 784.555 141.977C785.518 142.706 786.365 143.604 787.094 144.672C787.823 145.714 788.409 146.924 788.852 148.305C789.294 149.685 789.516 151.247 789.516 152.992V181ZM752.875 181H742.719V120.922H752.875V181ZM835.141 130.102H824.984V120.922H835.141V130.102ZM835.141 181H824.984V138.773H835.141V181ZM891.703 181H881.547V157.562C881.547 156.234 881.312 155.049 880.844 154.008C880.401 152.94 879.789 152.029 879.008 151.273C878.227 150.518 877.302 149.945 876.234 149.555C875.193 149.138 874.06 148.93 872.836 148.93H855.062V181H844.906V143.812C844.906 143.109 845.036 142.458 845.297 141.859C845.557 141.234 845.922 140.701 846.391 140.258C846.859 139.789 847.406 139.424 848.031 139.164C848.656 138.904 849.32 138.773 850.023 138.773H872.914C874.19 138.773 875.531 138.917 876.938 139.203C878.37 139.49 879.776 139.958 881.156 140.609C882.562 141.234 883.891 142.042 885.141 143.031C886.417 143.995 887.536 145.18 888.5 146.586C889.49 147.966 890.271 149.568 890.844 151.391C891.417 153.214 891.703 155.271 891.703 157.562V181ZM999.281 124.984L989.906 177.484C989.698 178.526 989.229 179.424 988.5 180.18C987.771 180.935 986.885 181.417 985.844 181.625C984.776 181.807 983.76 181.69 982.797 181.273C981.859 180.857 981.117 180.206 980.57 179.32L961.977 148.773L943.344 179.32C942.901 180.076 942.289 180.661 941.508 181.078C940.753 181.495 939.932 181.703 939.047 181.703C937.823 181.703 936.742 181.312 935.805 180.531C934.867 179.75 934.294 178.734 934.086 177.484L924.633 124.984H934.945L941.664 161.977L957.68 136.43C958.122 135.674 958.721 135.089 959.477 134.672C960.258 134.255 961.091 134.047 961.977 134.047C962.862 134.047 963.682 134.255 964.438 134.672C965.193 135.089 965.818 135.674 966.312 136.43L982.25 161.977L988.969 124.984H999.281ZM1051.2 152.758C1051.2 154.164 1050.95 155.688 1050.45 157.328C1049.96 158.943 1049.15 160.453 1048.03 161.859C1046.94 163.24 1045.49 164.398 1043.7 165.336C1041.92 166.273 1039.76 166.742 1037.21 166.742H1018.89V157.094H1037.21C1038.59 157.094 1039.66 156.677 1040.41 155.844C1041.17 154.984 1041.55 153.93 1041.55 152.68C1041.55 151.352 1041.12 150.31 1040.26 149.555C1039.42 148.799 1038.41 148.422 1037.21 148.422H1018.89C1017.51 148.422 1016.44 148.852 1015.69 149.711C1014.93 150.544 1014.55 151.586 1014.55 152.836V167.016C1014.55 168.37 1014.97 169.424 1015.8 170.18C1016.66 170.935 1017.72 171.312 1018.97 171.312H1037.21V181H1018.89C1017.48 181 1015.96 180.753 1014.32 180.258C1012.71 179.763 1011.2 178.969 1009.79 177.875C1008.41 176.755 1007.25 175.31 1006.31 173.539C1005.38 171.742 1004.91 169.568 1004.91 167.016V152.758C1004.91 151.352 1005.15 149.841 1005.65 148.227C1006.14 146.586 1006.94 145.076 1008.03 143.695C1009.15 142.289 1010.6 141.117 1012.37 140.18C1014.16 139.242 1016.34 138.773 1018.89 138.773H1037.21C1038.62 138.773 1040.13 139.021 1041.74 139.516C1043.38 140.01 1044.89 140.818 1046.27 141.938C1047.68 143.031 1048.85 144.477 1049.79 146.273C1050.73 148.044 1051.2 150.206 1051.2 152.758ZM1104.59 166.742C1104.59 167.706 1104.48 168.721 1104.24 169.789C1104.03 170.857 1103.7 171.924 1103.23 172.992C1102.76 174.034 1102.15 175.036 1101.39 176C1100.66 176.964 1099.76 177.823 1098.7 178.578C1097.65 179.307 1096.44 179.893 1095.06 180.336C1093.68 180.779 1092.12 181 1090.38 181H1072.05C1071.09 181 1070.08 180.896 1069.01 180.688C1067.94 180.453 1066.87 180.102 1065.8 179.633C1064.76 179.164 1063.76 178.565 1062.8 177.836C1061.83 177.081 1060.97 176.182 1060.22 175.141C1059.49 174.073 1058.9 172.849 1058.46 171.469C1058.02 170.062 1057.8 168.487 1057.8 166.742V120.922H1067.95V166.742C1067.95 167.992 1068.34 168.995 1069.12 169.75C1069.91 170.479 1070.88 170.844 1072.05 170.844H1090.38C1091.65 170.844 1092.64 170.466 1093.34 169.711C1094.07 168.956 1094.44 167.966 1094.44 166.742V152.992C1094.44 151.716 1094.06 150.727 1093.3 150.023C1092.55 149.294 1091.57 148.93 1090.38 148.93H1072.05V138.773H1090.38C1091.34 138.773 1092.35 138.891 1093.42 139.125C1094.49 139.333 1095.54 139.672 1096.59 140.141C1097.65 140.609 1098.67 141.221 1099.63 141.977C1100.6 142.706 1101.44 143.604 1102.17 144.672C1102.9 145.714 1103.49 146.924 1103.93 148.305C1104.37 149.685 1104.59 151.247 1104.59 152.992V166.742ZM1160.57 166.742C1160.57 169.372 1160.09 171.599 1159.12 173.422C1158.19 175.219 1157 176.69 1155.57 177.836C1154.16 178.956 1152.63 179.763 1150.96 180.258C1149.29 180.753 1147.74 181 1146.31 181H1113.73V170.844H1146.31C1147.69 170.844 1148.71 170.492 1149.36 169.789C1150.04 169.086 1150.38 168.07 1150.38 166.742V158.109H1113.73V147.875H1150.38V139.32C1150.38 136.534 1149.02 135.141 1146.31 135.141H1113.73V124.984H1146.31C1148.06 124.984 1149.62 125.206 1151 125.648C1152.38 126.091 1153.59 126.69 1154.63 127.445C1155.7 128.174 1156.61 129.021 1157.37 129.984C1158.12 130.948 1158.73 131.964 1159.2 133.031C1159.67 134.073 1160.01 135.141 1160.22 136.234C1160.45 137.302 1160.57 138.305 1160.57 139.242V166.742Z" fill="#A3B9B8"/>
<path d="M64.6094 130H50.1953L27.3438 107.109H20.1953V96.875H27.3438L50.1953 73.9844H64.6094L35.8203 101.992L64.6094 130ZM16.1328 130H5.97656V73.9844H16.1328V130ZM116.641 130H106.484V106.562C106.484 105.234 106.25 104.049 105.781 103.008C105.339 101.94 104.727 101.029 103.945 100.273C103.164 99.5182 102.24 98.9453 101.172 98.5547C100.13 98.138 98.9974 97.9297 97.7734 97.9297H80V130H69.8438V92.8125C69.8438 92.1094 69.974 91.4583 70.2344 90.8594C70.4948 90.2344 70.8594 89.7005 71.3281 89.2578C71.7969 88.7891 72.3438 88.4245 72.9688 88.1641C73.5938 87.9036 74.2578 87.7734 74.9609 87.7734H97.8516C99.1276 87.7734 100.469 87.9167 101.875 88.2031C103.307 88.4896 104.714 88.9583 106.094 89.6094C107.5 90.2344 108.828 91.0417 110.078 92.0312C111.354 92.9948 112.474 94.1797 113.438 95.5859C114.427 96.9661 115.208 98.5677 115.781 100.391C116.354 102.214 116.641 104.271 116.641 106.562V130ZM171.484 115.742C171.484 117.487 171.263 119.062 170.82 120.469C170.378 121.849 169.792 123.073 169.062 124.141C168.333 125.182 167.487 126.081 166.523 126.836C165.56 127.565 164.544 128.164 163.477 128.633C162.435 129.102 161.367 129.453 160.273 129.688C159.206 129.896 158.19 130 157.227 130H138.906C137.5 130 135.964 129.753 134.297 129.258C132.63 128.763 131.081 127.956 129.648 126.836C128.242 125.69 127.057 124.219 126.094 122.422C125.156 120.599 124.688 118.372 124.688 115.742V101.992C124.688 99.388 125.156 97.1875 126.094 95.3906C127.057 93.5677 128.242 92.0964 129.648 90.9766C131.081 89.8307 132.63 89.0104 134.297 88.5156C135.964 88.0208 137.5 87.7734 138.906 87.7734H157.227C159.831 87.7734 162.044 88.2422 163.867 89.1797C165.69 90.1172 167.161 91.3021 168.281 92.7344C169.401 94.1406 170.208 95.6771 170.703 97.3438C171.224 99.0104 171.484 100.56 171.484 101.992V115.742ZM161.328 102.07C161.328 100.664 160.977 99.6224 160.273 98.9453C159.57 98.2682 158.555 97.9297 157.227 97.9297H138.984C137.63 97.9297 136.602 98.2812 135.898 98.9844C135.195 99.6615 134.844 100.664 134.844 101.992V115.742C134.844 117.07 135.195 118.086 135.898 118.789C136.602 119.492 137.63 119.844 138.984 119.844H157.227C158.607 119.844 159.635 119.492 160.312 118.789C160.99 118.086 161.328 117.07 161.328 115.742V102.07ZM249.688 87.7734C248.073 91.3932 246.328 94.9609 244.453 98.4766C242.578 101.966 240.612 105.273 238.555 108.398C236.523 111.523 234.44 114.414 232.305 117.07C230.169 119.701 228.047 121.979 225.938 123.906C223.854 125.807 221.81 127.305 219.805 128.398C217.826 129.466 215.951 130 214.18 130C213.451 130 212.773 129.87 212.148 129.609C211.523 129.349 210.977 128.997 210.508 128.555C210.039 128.086 209.674 127.539 209.414 126.914C209.154 126.289 209.023 125.612 209.023 124.883V105.938L188.867 128.477C188.346 128.997 187.773 129.388 187.148 129.648C186.549 129.883 185.924 130 185.273 130C184.57 130 183.906 129.87 183.281 129.609C182.682 129.349 182.148 128.997 181.68 128.555C181.211 128.086 180.833 127.539 180.547 126.914C180.286 126.289 180.156 125.612 180.156 124.883V87.7734H190.312V111.836L210.547 89.2188C211.276 88.4896 212.135 88.0339 213.125 87.8516C214.141 87.6432 215.13 87.7474 216.094 88.1641C217.057 88.5547 217.812 89.1797 218.359 90.0391C218.932 90.8724 219.219 91.7969 219.219 92.8125V116.953C221.406 114.844 223.385 112.617 225.156 110.273C226.927 107.93 228.568 105.521 230.078 103.047C231.615 100.547 233.047 98.0208 234.375 95.4688C235.729 92.8906 237.044 90.3255 238.32 87.7734H249.688ZM332.148 92.7344C332.148 95.0521 331.849 97.1224 331.25 98.9453C330.677 100.768 329.909 102.383 328.945 103.789C327.982 105.169 326.849 106.354 325.547 107.344C324.271 108.333 322.943 109.154 321.562 109.805C320.182 110.43 318.776 110.885 317.344 111.172C315.938 111.458 314.609 111.602 313.359 111.602H309.258V130H299.023V111.602H294.961C293.711 111.602 292.37 111.458 290.938 111.172C289.531 110.885 288.125 110.43 286.719 109.805C285.339 109.154 284.01 108.333 282.734 107.344C281.458 106.354 280.326 105.169 279.336 103.789C278.372 102.383 277.591 100.768 276.992 98.9453C276.419 97.0964 276.133 95.026 276.133 92.7344V73.9844H286.289V92.7344C286.289 94.0625 286.497 95.2604 286.914 96.3281C287.331 97.3698 287.917 98.2682 288.672 99.0234C289.427 99.7786 290.339 100.365 291.406 100.781C292.5 101.172 293.711 101.367 295.039 101.367H313.359C314.323 101.211 315.312 101.016 316.328 100.781C317.344 100.521 318.268 100.091 319.102 99.4922C319.935 98.8932 320.625 98.0599 321.172 96.9922C321.719 95.9245 321.992 94.5052 321.992 92.7344V73.9844H332.148V92.7344ZM385.625 115.742C385.625 117.487 385.404 119.062 384.961 120.469C384.518 121.849 383.932 123.073 383.203 124.141C382.474 125.182 381.628 126.081 380.664 126.836C379.701 127.565 378.685 128.164 377.617 128.633C376.576 129.102 375.508 129.453 374.414 129.688C373.346 129.896 372.331 130 371.367 130H353.047C351.641 130 350.104 129.753 348.438 129.258C346.771 128.763 345.221 127.956 343.789 126.836C342.383 125.69 341.198 124.219 340.234 122.422C339.297 120.599 338.828 118.372 338.828 115.742V101.992C338.828 99.388 339.297 97.1875 340.234 95.3906C341.198 93.5677 342.383 92.0964 343.789 90.9766C345.221 89.8307 346.771 89.0104 348.438 88.5156C350.104 88.0208 351.641 87.7734 353.047 87.7734H371.367C373.971 87.7734 376.185 88.2422 378.008 89.1797C379.831 90.1172 381.302 91.3021 382.422 92.7344C383.542 94.1406 384.349 95.6771 384.844 97.3438C385.365 99.0104 385.625 100.56 385.625 101.992V115.742ZM375.469 102.07C375.469 100.664 375.117 99.6224 374.414 98.9453C373.711 98.2682 372.695 97.9297 371.367 97.9297H353.125C351.771 97.9297 350.742 98.2812 350.039 98.9844C349.336 99.6615 348.984 100.664 348.984 101.992V115.742C348.984 117.07 349.336 118.086 350.039 118.789C350.742 119.492 351.771 119.844 353.125 119.844H371.367C372.747 119.844 373.776 119.492 374.453 118.789C375.13 118.086 375.469 117.07 375.469 115.742V102.07ZM440.469 124.883C440.469 125.612 440.339 126.289 440.078 126.914C439.818 127.539 439.453 128.086 438.984 128.555C438.542 128.997 438.008 129.349 437.383 129.609C436.784 129.87 436.133 130 435.43 130H412.461C411.211 130 409.87 129.857 408.438 129.57C407.031 129.284 405.638 128.828 404.258 128.203C402.878 127.552 401.536 126.745 400.234 125.781C398.958 124.792 397.839 123.607 396.875 122.227C395.911 120.82 395.13 119.206 394.531 117.383C393.958 115.56 393.672 113.503 393.672 111.211V87.7734H403.828V111.211C403.828 112.539 404.049 113.737 404.492 114.805C404.961 115.846 405.586 116.745 406.367 117.5C407.148 118.255 408.06 118.841 409.102 119.258C410.169 119.648 411.315 119.844 412.539 119.844H430.312V87.7734H440.469V124.883ZM486.953 97.9297H464.102C462.721 97.9297 461.68 98.2812 460.977 98.9844C460.273 99.6615 459.922 100.664 459.922 101.992V130H449.766V101.992C449.766 100.247 449.987 98.6849 450.43 97.3047C450.872 95.9245 451.458 94.7135 452.188 93.6719C452.943 92.6042 453.802 91.7057 454.766 90.9766C455.729 90.2214 456.732 89.6094 457.773 89.1406C458.841 88.6719 459.909 88.3333 460.977 88.125C462.07 87.8906 463.086 87.7734 464.023 87.7734H486.953V97.9297ZM591.719 73.9844L582.344 126.484C582.135 127.526 581.667 128.424 580.938 129.18C580.208 129.935 579.323 130.417 578.281 130.625C577.214 130.807 576.198 130.69 575.234 130.273C574.297 129.857 573.555 129.206 573.008 128.32L554.414 97.7734L535.781 128.32C535.339 129.076 534.727 129.661 533.945 130.078C533.19 130.495 532.37 130.703 531.484 130.703C530.26 130.703 529.18 130.312 528.242 129.531C527.305 128.75 526.732 127.734 526.523 126.484L517.07 73.9844H527.383L534.102 110.977L550.117 85.4297C550.56 84.6745 551.159 84.0885 551.914 83.6719C552.695 83.2552 553.529 83.0469 554.414 83.0469C555.299 83.0469 556.12 83.2552 556.875 83.6719C557.63 84.0885 558.255 84.6745 558.75 85.4297L574.688 110.977L581.406 73.9844H591.719ZM644.141 115.742C644.141 117.487 643.919 119.062 643.477 120.469C643.034 121.849 642.448 123.073 641.719 124.141C640.99 125.182 640.143 126.081 639.18 126.836C638.216 127.565 637.201 128.164 636.133 128.633C635.091 129.102 634.023 129.453 632.93 129.688C631.862 129.896 630.846 130 629.883 130H611.562C610.156 130 608.62 129.753 606.953 129.258C605.286 128.763 603.737 127.956 602.305 126.836C600.898 125.69 599.714 124.219 598.75 122.422C597.812 120.599 597.344 118.372 597.344 115.742V101.992C597.344 99.388 597.812 97.1875 598.75 95.3906C599.714 93.5677 600.898 92.0964 602.305 90.9766C603.737 89.8307 605.286 89.0104 606.953 88.5156C608.62 88.0208 610.156 87.7734 611.562 87.7734H629.883C632.487 87.7734 634.701 88.2422 636.523 89.1797C638.346 90.1172 639.818 91.3021 640.938 92.7344C642.057 94.1406 642.865 95.6771 643.359 97.3438C643.88 99.0104 644.141 100.56 644.141 101.992V115.742ZM633.984 102.07C633.984 100.664 633.633 99.6224 632.93 98.9453C632.227 98.2682 631.211 97.9297 629.883 97.9297H611.641C610.286 97.9297 609.258 98.2812 608.555 98.9844C607.852 99.6615 607.5 100.664 607.5 101.992V115.742C607.5 117.07 607.852 118.086 608.555 118.789C609.258 119.492 610.286 119.844 611.641 119.844H629.883C631.263 119.844 632.292 119.492 632.969 118.789C633.646 118.086 633.984 117.07 633.984 115.742V102.07ZM689.766 97.9297H666.914C665.534 97.9297 664.492 98.2812 663.789 98.9844C663.086 99.6615 662.734 100.664 662.734 101.992V130H652.578V101.992C652.578 100.247 652.799 98.6849 653.242 97.3047C653.685 95.9245 654.271 94.7135 655 93.6719C655.755 92.6042 656.615 91.7057 657.578 90.9766C658.542 90.2214 659.544 89.6094 660.586 89.1406C661.654 88.6719 662.721 88.3333 663.789 88.125C664.883 87.8906 665.898 87.7734 666.836 87.7734H689.766V97.9297ZM734.883 97.9297H717.148V130H706.875V97.9297H693.672V87.7734H706.875V73.9844H717.148V87.7734H734.883V97.9297ZM788.516 130H778.359V101.992C778.359 100.664 778.021 99.6615 777.344 98.9844C776.667 98.2812 775.651 97.9297 774.297 97.9297H755.977V87.7734H774.297C775.26 87.7734 776.276 87.8906 777.344 88.125C778.411 88.3333 779.466 88.6719 780.508 89.1406C781.576 89.6094 782.591 90.2214 783.555 90.9766C784.518 91.7057 785.365 92.6042 786.094 93.6719C786.823 94.7135 787.409 95.9245 787.852 97.3047C788.294 98.6849 788.516 100.247 788.516 101.992V130ZM751.875 130H741.719V69.9219H751.875V130ZM834.141 79.1016H823.984V69.9219H834.141V79.1016ZM834.141 130H823.984V87.7734H834.141V130ZM890.703 130H880.547V106.562C880.547 105.234 880.312 104.049 879.844 103.008C879.401 101.94 878.789 101.029 878.008 100.273C877.227 99.5182 876.302 98.9453 875.234 98.5547C874.193 98.138 873.06 97.9297 871.836 97.9297H854.062V130H843.906V92.8125C843.906 92.1094 844.036 91.4583 844.297 90.8594C844.557 90.2344 844.922 89.7005 845.391 89.2578C845.859 88.7891 846.406 88.4245 847.031 88.1641C847.656 87.9036 848.32 87.7734 849.023 87.7734H871.914C873.19 87.7734 874.531 87.9167 875.938 88.2031C877.37 88.4896 878.776 88.9583 880.156 89.6094C881.562 90.2344 882.891 91.0417 884.141 92.0312C885.417 92.9948 886.536 94.1797 887.5 95.5859C888.49 96.9661 889.271 98.5677 889.844 100.391C890.417 102.214 890.703 104.271 890.703 106.562V130ZM998.281 73.9844L988.906 126.484C988.698 127.526 988.229 128.424 987.5 129.18C986.771 129.935 985.885 130.417 984.844 130.625C983.776 130.807 982.76 130.69 981.797 130.273C980.859 129.857 980.117 129.206 979.57 128.32L960.977 97.7734L942.344 128.32C941.901 129.076 941.289 129.661 940.508 130.078C939.753 130.495 938.932 130.703 938.047 130.703C936.823 130.703 935.742 130.312 934.805 129.531C933.867 128.75 933.294 127.734 933.086 126.484L923.633 73.9844H933.945L940.664 110.977L956.68 85.4297C957.122 84.6745 957.721 84.0885 958.477 83.6719C959.258 83.2552 960.091 83.0469 960.977 83.0469C961.862 83.0469 962.682 83.2552 963.438 83.6719C964.193 84.0885 964.818 84.6745 965.312 85.4297L981.25 110.977L987.969 73.9844H998.281ZM1050.2 101.758C1050.2 103.164 1049.95 104.688 1049.45 106.328C1048.96 107.943 1048.15 109.453 1047.03 110.859C1045.94 112.24 1044.49 113.398 1042.7 114.336C1040.92 115.273 1038.76 115.742 1036.21 115.742H1017.89V106.094H1036.21C1037.59 106.094 1038.66 105.677 1039.41 104.844C1040.17 103.984 1040.55 102.93 1040.55 101.68C1040.55 100.352 1040.12 99.3099 1039.26 98.5547C1038.42 97.7995 1037.41 97.4219 1036.21 97.4219H1017.89C1016.51 97.4219 1015.44 97.8516 1014.69 98.7109C1013.93 99.5443 1013.55 100.586 1013.55 101.836V116.016C1013.55 117.37 1013.97 118.424 1014.8 119.18C1015.66 119.935 1016.72 120.312 1017.97 120.312H1036.21V130H1017.89C1016.48 130 1014.96 129.753 1013.32 129.258C1011.71 128.763 1010.2 127.969 1008.79 126.875C1007.41 125.755 1006.25 124.31 1005.31 122.539C1004.38 120.742 1003.91 118.568 1003.91 116.016V101.758C1003.91 100.352 1004.15 98.8411 1004.65 97.2266C1005.14 95.5859 1005.94 94.0755 1007.03 92.6953C1008.15 91.2891 1009.6 90.1172 1011.37 89.1797C1013.16 88.2422 1015.34 87.7734 1017.89 87.7734H1036.21C1037.62 87.7734 1039.13 88.0208 1040.74 88.5156C1042.38 89.0104 1043.89 89.8177 1045.27 90.9375C1046.68 92.0312 1047.85 93.4766 1048.79 95.2734C1049.73 97.0443 1050.2 99.2057 1050.2 101.758ZM1103.59 115.742C1103.59 116.706 1103.48 117.721 1103.24 118.789C1103.03 119.857 1102.7 120.924 1102.23 121.992C1101.76 123.034 1101.15 124.036 1100.39 125C1099.66 125.964 1098.76 126.823 1097.7 127.578C1096.65 128.307 1095.44 128.893 1094.06 129.336C1092.68 129.779 1091.12 130 1089.38 130H1071.05C1070.09 130 1069.08 129.896 1068.01 129.688C1066.94 129.453 1065.87 129.102 1064.8 128.633C1063.76 128.164 1062.76 127.565 1061.8 126.836C1060.83 126.081 1059.97 125.182 1059.22 124.141C1058.49 123.073 1057.9 121.849 1057.46 120.469C1057.02 119.062 1056.8 117.487 1056.8 115.742V69.9219H1066.95V115.742C1066.95 116.992 1067.34 117.995 1068.12 118.75C1068.91 119.479 1069.88 119.844 1071.05 119.844H1089.38C1090.65 119.844 1091.64 119.466 1092.34 118.711C1093.07 117.956 1093.44 116.966 1093.44 115.742V101.992C1093.44 100.716 1093.06 99.7266 1092.3 99.0234C1091.55 98.2943 1090.57 97.9297 1089.38 97.9297H1071.05V87.7734H1089.38C1090.34 87.7734 1091.35 87.8906 1092.42 88.125C1093.49 88.3333 1094.54 88.6719 1095.59 89.1406C1096.65 89.6094 1097.67 90.2214 1098.63 90.9766C1099.6 91.7057 1100.44 92.6042 1101.17 93.6719C1101.9 94.7135 1102.49 95.9245 1102.93 97.3047C1103.37 98.6849 1103.59 100.247 1103.59 101.992V115.742ZM1159.57 115.742C1159.57 118.372 1159.09 120.599 1158.12 122.422C1157.19 124.219 1156 125.69 1154.57 126.836C1153.16 127.956 1151.63 128.763 1149.96 129.258C1148.29 129.753 1146.74 130 1145.31 130H1112.73V119.844H1145.31C1146.69 119.844 1147.71 119.492 1148.36 118.789C1149.04 118.086 1149.38 117.07 1149.38 115.742V107.109H1112.73V96.875H1149.38V88.3203C1149.38 85.5339 1148.02 84.1406 1145.31 84.1406H1112.73V73.9844H1145.31C1147.06 73.9844 1148.62 74.2057 1150 74.6484C1151.38 75.0911 1152.59 75.6901 1153.63 76.4453C1154.7 77.1745 1155.61 78.0208 1156.37 78.9844C1157.12 79.9479 1157.73 80.9635 1158.2 82.0312C1158.67 83.0729 1159.01 84.1406 1159.22 85.2344C1159.45 86.3021 1159.57 87.3047 1159.57 88.2422V115.742Z" fill="#698381"/>
<path d="M64.6094 79H50.1953L27.3438 56.1094H20.1953V45.875H27.3438L50.1953 22.9844H64.6094L35.8203 50.9922L64.6094 79ZM16.1328 79H5.97656V22.9844H16.1328V79ZM116.641 79H106.484V55.5625C106.484 54.2344 106.25 53.0495 105.781 52.0078C105.339 50.9401 104.727 50.0286 103.945 49.2734C103.164 48.5182 102.24 47.9453 101.172 47.5547C100.13 47.138 98.9974 46.9297 97.7734 46.9297H80V79H69.8438V41.8125C69.8438 41.1094 69.974 40.4583 70.2344 39.8594C70.4948 39.2344 70.8594 38.7005 71.3281 38.2578C71.7969 37.7891 72.3438 37.4245 72.9688 37.1641C73.5938 36.9036 74.2578 36.7734 74.9609 36.7734H97.8516C99.1276 36.7734 100.469 36.9167 101.875 37.2031C103.307 37.4896 104.714 37.9583 106.094 38.6094C107.5 39.2344 108.828 40.0417 110.078 41.0312C111.354 41.9948 112.474 43.1797 113.438 44.5859C114.427 45.9661 115.208 47.5677 115.781 49.3906C116.354 51.2135 116.641 53.2708 116.641 55.5625V79ZM171.484 64.7422C171.484 66.487 171.263 68.0625 170.82 69.4688C170.378 70.849 169.792 72.0729 169.062 73.1406C168.333 74.1823 167.487 75.0807 166.523 75.8359C165.56 76.5651 164.544 77.1641 163.477 77.6328C162.435 78.1016 161.367 78.4531 160.273 78.6875C159.206 78.8958 158.19 79 157.227 79H138.906C137.5 79 135.964 78.7526 134.297 78.2578C132.63 77.763 131.081 76.9557 129.648 75.8359C128.242 74.6901 127.057 73.2188 126.094 71.4219C125.156 69.599 124.688 67.3724 124.688 64.7422V50.9922C124.688 48.388 125.156 46.1875 126.094 44.3906C127.057 42.5677 128.242 41.0964 129.648 39.9766C131.081 38.8307 132.63 38.0104 134.297 37.5156C135.964 37.0208 137.5 36.7734 138.906 36.7734H157.227C159.831 36.7734 162.044 37.2422 163.867 38.1797C165.69 39.1172 167.161 40.3021 168.281 41.7344C169.401 43.1406 170.208 44.6771 170.703 46.3438C171.224 48.0104 171.484 49.5599 171.484 50.9922V64.7422ZM161.328 51.0703C161.328 49.6641 160.977 48.6224 160.273 47.9453C159.57 47.2682 158.555 46.9297 157.227 46.9297H138.984C137.63 46.9297 136.602 47.2812 135.898 47.9844C135.195 48.6615 134.844 49.6641 134.844 50.9922V64.7422C134.844 66.0703 135.195 67.0859 135.898 67.7891C136.602 68.4922 137.63 68.8438 138.984 68.8438H157.227C158.607 68.8438 159.635 68.4922 160.312 67.7891C160.99 67.0859 161.328 66.0703 161.328 64.7422V51.0703ZM249.688 36.7734C248.073 40.3932 246.328 43.9609 244.453 47.4766C242.578 50.9661 240.612 54.2734 238.555 57.3984C236.523 60.5234 234.44 63.4141 232.305 66.0703C230.169 68.7005 228.047 70.9792 225.938 72.9062C223.854 74.8073 221.81 76.3047 219.805 77.3984C217.826 78.4661 215.951 79 214.18 79C213.451 79 212.773 78.8698 212.148 78.6094C211.523 78.349 210.977 77.9974 210.508 77.5547C210.039 77.0859 209.674 76.5391 209.414 75.9141C209.154 75.2891 209.023 74.612 209.023 73.8828V54.9375L188.867 77.4766C188.346 77.9974 187.773 78.388 187.148 78.6484C186.549 78.8828 185.924 79 185.273 79C184.57 79 183.906 78.8698 183.281 78.6094C182.682 78.349 182.148 77.9974 181.68 77.5547C181.211 77.0859 180.833 76.5391 180.547 75.9141C180.286 75.2891 180.156 74.612 180.156 73.8828V36.7734H190.312V60.8359L210.547 38.2188C211.276 37.4896 212.135 37.0339 213.125 36.8516C214.141 36.6432 215.13 36.7474 216.094 37.1641C217.057 37.5547 217.812 38.1797 218.359 39.0391C218.932 39.8724 219.219 40.7969 219.219 41.8125V65.9531C221.406 63.8438 223.385 61.6172 225.156 59.2734C226.927 56.9297 228.568 54.5208 230.078 52.0469C231.615 49.5469 233.047 47.0208 234.375 44.4688C235.729 41.8906 237.044 39.3255 238.32 36.7734H249.688ZM332.148 41.7344C332.148 44.0521 331.849 46.1224 331.25 47.9453C330.677 49.7682 329.909 51.3828 328.945 52.7891C327.982 54.1693 326.849 55.3542 325.547 56.3438C324.271 57.3333 322.943 58.1536 321.562 58.8047C320.182 59.4297 318.776 59.8854 317.344 60.1719C315.938 60.4583 314.609 60.6016 313.359 60.6016H309.258V79H299.023V60.6016H294.961C293.711 60.6016 292.37 60.4583 290.938 60.1719C289.531 59.8854 288.125 59.4297 286.719 58.8047C285.339 58.1536 284.01 57.3333 282.734 56.3438C281.458 55.3542 280.326 54.1693 279.336 52.7891C278.372 51.3828 277.591 49.7682 276.992 47.9453C276.419 46.0964 276.133 44.026 276.133 41.7344V22.9844H286.289V41.7344C286.289 43.0625 286.497 44.2604 286.914 45.3281C287.331 46.3698 287.917 47.2682 288.672 48.0234C289.427 48.7786 290.339 49.3646 291.406 49.7812C292.5 50.1719 293.711 50.3672 295.039 50.3672H313.359C314.323 50.2109 315.312 50.0156 316.328 49.7812C317.344 49.5208 318.268 49.0911 319.102 48.4922C319.935 47.8932 320.625 47.0599 321.172 45.9922C321.719 44.9245 321.992 43.5052 321.992 41.7344V22.9844H332.148V41.7344ZM385.625 64.7422C385.625 66.487 385.404 68.0625 384.961 69.4688C384.518 70.849 383.932 72.0729 383.203 73.1406C382.474 74.1823 381.628 75.0807 380.664 75.8359C379.701 76.5651 378.685 77.1641 377.617 77.6328C376.576 78.1016 375.508 78.4531 374.414 78.6875C373.346 78.8958 372.331 79 371.367 79H353.047C351.641 79 350.104 78.7526 348.438 78.2578C346.771 77.763 345.221 76.9557 343.789 75.8359C342.383 74.6901 341.198 73.2188 340.234 71.4219C339.297 69.599 338.828 67.3724 338.828 64.7422V50.9922C338.828 48.388 339.297 46.1875 340.234 44.3906C341.198 42.5677 342.383 41.0964 343.789 39.9766C345.221 38.8307 346.771 38.0104 348.438 37.5156C350.104 37.0208 351.641 36.7734 353.047 36.7734H371.367C373.971 36.7734 376.185 37.2422 378.008 38.1797C379.831 39.1172 381.302 40.3021 382.422 41.7344C383.542 43.1406 384.349 44.6771 384.844 46.3438C385.365 48.0104 385.625 49.5599 385.625 50.9922V64.7422ZM375.469 51.0703C375.469 49.6641 375.117 48.6224 374.414 47.9453C373.711 47.2682 372.695 46.9297 371.367 46.9297H353.125C351.771 46.9297 350.742 47.2812 350.039 47.9844C349.336 48.6615 348.984 49.6641 348.984 50.9922V64.7422C348.984 66.0703 349.336 67.0859 350.039 67.7891C350.742 68.4922 351.771 68.8438 353.125 68.8438H371.367C372.747 68.8438 373.776 68.4922 374.453 67.7891C375.13 67.0859 375.469 66.0703 375.469 64.7422V51.0703ZM440.469 73.8828C440.469 74.612 440.339 75.2891 440.078 75.9141C439.818 76.5391 439.453 77.0859 438.984 77.5547C438.542 77.9974 438.008 78.349 437.383 78.6094C436.784 78.8698 436.133 79 435.43 79H412.461C411.211 79 409.87 78.8568 408.438 78.5703C407.031 78.2839 405.638 77.8281 404.258 77.2031C402.878 76.5521 401.536 75.7448 400.234 74.7812C398.958 73.7917 397.839 72.6068 396.875 71.2266C395.911 69.8203 395.13 68.2057 394.531 66.3828C393.958 64.5599 393.672 62.5026 393.672 60.2109V36.7734H403.828V60.2109C403.828 61.5391 404.049 62.737 404.492 63.8047C404.961 64.8464 405.586 65.7448 406.367 66.5C407.148 67.2552 408.06 67.8411 409.102 68.2578C410.169 68.6484 411.315 68.8438 412.539 68.8438H430.312V36.7734H440.469V73.8828ZM486.953 46.9297H464.102C462.721 46.9297 461.68 47.2812 460.977 47.9844C460.273 48.6615 459.922 49.6641 459.922 50.9922V79H449.766V50.9922C449.766 49.2474 449.987 47.6849 450.43 46.3047C450.872 44.9245 451.458 43.7135 452.188 42.6719C452.943 41.6042 453.802 40.7057 454.766 39.9766C455.729 39.2214 456.732 38.6094 457.773 38.1406C458.841 37.6719 459.909 37.3333 460.977 37.125C462.07 36.8906 463.086 36.7734 464.023 36.7734H486.953V46.9297ZM591.719 22.9844L582.344 75.4844C582.135 76.526 581.667 77.4245 580.938 78.1797C580.208 78.9349 579.323 79.4167 578.281 79.625C577.214 79.8073 576.198 79.6901 575.234 79.2734C574.297 78.8568 573.555 78.2057 573.008 77.3203L554.414 46.7734L535.781 77.3203C535.339 78.0755 534.727 78.6615 533.945 79.0781C533.19 79.4948 532.37 79.7031 531.484 79.7031C530.26 79.7031 529.18 79.3125 528.242 78.5312C527.305 77.75 526.732 76.7344 526.523 75.4844L517.07 22.9844H527.383L534.102 59.9766L550.117 34.4297C550.56 33.6745 551.159 33.0885 551.914 32.6719C552.695 32.2552 553.529 32.0469 554.414 32.0469C555.299 32.0469 556.12 32.2552 556.875 32.6719C557.63 33.0885 558.255 33.6745 558.75 34.4297L574.688 59.9766L581.406 22.9844H591.719ZM644.141 64.7422C644.141 66.487 643.919 68.0625 643.477 69.4688C643.034 70.849 642.448 72.0729 641.719 73.1406C640.99 74.1823 640.143 75.0807 639.18 75.8359C638.216 76.5651 637.201 77.1641 636.133 77.6328C635.091 78.1016 634.023 78.4531 632.93 78.6875C631.862 78.8958 630.846 79 629.883 79H611.562C610.156 79 608.62 78.7526 606.953 78.2578C605.286 77.763 603.737 76.9557 602.305 75.8359C600.898 74.6901 599.714 73.2188 598.75 71.4219C597.812 69.599 597.344 67.3724 597.344 64.7422V50.9922C597.344 48.388 597.812 46.1875 598.75 44.3906C599.714 42.5677 600.898 41.0964 602.305 39.9766C603.737 38.8307 605.286 38.0104 606.953 37.5156C608.62 37.0208 610.156 36.7734 611.562 36.7734H629.883C632.487 36.7734 634.701 37.2422 636.523 38.1797C638.346 39.1172 639.818 40.3021 640.938 41.7344C642.057 43.1406 642.865 44.6771 643.359 46.3438C643.88 48.0104 644.141 49.5599 644.141 50.9922V64.7422ZM633.984 51.0703C633.984 49.6641 633.633 48.6224 632.93 47.9453C632.227 47.2682 631.211 46.9297 629.883 46.9297H611.641C610.286 46.9297 609.258 47.2812 608.555 47.9844C607.852 48.6615 607.5 49.6641 607.5 50.9922V64.7422C607.5 66.0703 607.852 67.0859 608.555 67.7891C609.258 68.4922 610.286 68.8438 611.641 68.8438H629.883C631.263 68.8438 632.292 68.4922 632.969 67.7891C633.646 67.0859 633.984 66.0703 633.984 64.7422V51.0703ZM689.766 46.9297H666.914C665.534 46.9297 664.492 47.2812 663.789 47.9844C663.086 48.6615 662.734 49.6641 662.734 50.9922V79H652.578V50.9922C652.578 49.2474 652.799 47.6849 653.242 46.3047C653.685 44.9245 654.271 43.7135 655 42.6719C655.755 41.6042 656.615 40.7057 657.578 39.9766C658.542 39.2214 659.544 38.6094 660.586 38.1406C661.654 37.6719 662.721 37.3333 663.789 37.125C664.883 36.8906 665.898 36.7734 666.836 36.7734H689.766V46.9297ZM734.883 46.9297H717.148V79H706.875V46.9297H693.672V36.7734H706.875V22.9844H717.148V36.7734H734.883V46.9297ZM788.516 79H778.359V50.9922C778.359 49.6641 778.021 48.6615 777.344 47.9844C776.667 47.2812 775.651 46.9297 774.297 46.9297H755.977V36.7734H774.297C775.26 36.7734 776.276 36.8906 777.344 37.125C778.411 37.3333 779.466 37.6719 780.508 38.1406C781.576 38.6094 782.591 39.2214 783.555 39.9766C784.518 40.7057 785.365 41.6042 786.094 42.6719C786.823 43.7135 787.409 44.9245 787.852 46.3047C788.294 47.6849 788.516 49.2474 788.516 50.9922V79ZM751.875 79H741.719V18.9219H751.875V79ZM834.141 28.1016H823.984V18.9219H834.141V28.1016ZM834.141 79H823.984V36.7734H834.141V79ZM890.703 79H880.547V55.5625C880.547 54.2344 880.312 53.0495 879.844 52.0078C879.401 50.9401 878.789 50.0286 878.008 49.2734C877.227 48.5182 876.302 47.9453 875.234 47.5547C874.193 47.138 873.06 46.9297 871.836 46.9297H854.062V79H843.906V41.8125C843.906 41.1094 844.036 40.4583 844.297 39.8594C844.557 39.2344 844.922 38.7005 845.391 38.2578C845.859 37.7891 846.406 37.4245 847.031 37.1641C847.656 36.9036 848.32 36.7734 849.023 36.7734H871.914C873.19 36.7734 874.531 36.9167 875.938 37.2031C877.37 37.4896 878.776 37.9583 880.156 38.6094C881.562 39.2344 882.891 40.0417 884.141 41.0312C885.417 41.9948 886.536 43.1797 887.5 44.5859C888.49 45.9661 889.271 47.5677 889.844 49.3906C890.417 51.2135 890.703 53.2708 890.703 55.5625V79ZM998.281 22.9844L988.906 75.4844C988.698 76.526 988.229 77.4245 987.5 78.1797C986.771 78.9349 985.885 79.4167 984.844 79.625C983.776 79.8073 982.76 79.6901 981.797 79.2734C980.859 78.8568 980.117 78.2057 979.57 77.3203L960.977 46.7734L942.344 77.3203C941.901 78.0755 941.289 78.6615 940.508 79.0781C939.753 79.4948 938.932 79.7031 938.047 79.7031C936.823 79.7031 935.742 79.3125 934.805 78.5312C933.867 77.75 933.294 76.7344 933.086 75.4844L923.633 22.9844H933.945L940.664 59.9766L956.68 34.4297C957.122 33.6745 957.721 33.0885 958.477 32.6719C959.258 32.2552 960.091 32.0469 960.977 32.0469C961.862 32.0469 962.682 32.2552 963.438 32.6719C964.193 33.0885 964.818 33.6745 965.312 34.4297L981.25 59.9766L987.969 22.9844H998.281ZM1050.2 50.7578C1050.2 52.1641 1049.95 53.6875 1049.45 55.3281C1048.96 56.9427 1048.15 58.4531 1047.03 59.8594C1045.94 61.2396 1044.49 62.3984 1042.7 63.3359C1040.92 64.2734 1038.76 64.7422 1036.21 64.7422H1017.89V55.0938H1036.21C1037.59 55.0938 1038.66 54.6771 1039.41 53.8438C1040.17 52.9844 1040.55 51.9297 1040.55 50.6797C1040.55 49.3516 1040.12 48.3099 1039.26 47.5547C1038.42 46.7995 1037.41 46.4219 1036.21 46.4219H1017.89C1016.51 46.4219 1015.44 46.8516 1014.69 47.7109C1013.93 48.5443 1013.55 49.5859 1013.55 50.8359V65.0156C1013.55 66.3698 1013.97 67.4245 1014.8 68.1797C1015.66 68.9349 1016.72 69.3125 1017.97 69.3125H1036.21V79H1017.89C1016.48 79 1014.96 78.7526 1013.32 78.2578C1011.71 77.763 1010.2 76.9688 1008.79 75.875C1007.41 74.7552 1006.25 73.3099 1005.31 71.5391C1004.38 69.7422 1003.91 67.5677 1003.91 65.0156V50.7578C1003.91 49.3516 1004.15 47.8411 1004.65 46.2266C1005.14 44.5859 1005.94 43.0755 1007.03 41.6953C1008.15 40.2891 1009.6 39.1172 1011.37 38.1797C1013.16 37.2422 1015.34 36.7734 1017.89 36.7734H1036.21C1037.62 36.7734 1039.13 37.0208 1040.74 37.5156C1042.38 38.0104 1043.89 38.8177 1045.27 39.9375C1046.68 41.0312 1047.85 42.4766 1048.79 44.2734C1049.73 46.0443 1050.2 48.2057 1050.2 50.7578ZM1103.59 64.7422C1103.59 65.7057 1103.48 66.7214 1103.24 67.7891C1103.03 68.8568 1102.7 69.9245 1102.23 70.9922C1101.76 72.0339 1101.15 73.0365 1100.39 74C1099.66 74.9635 1098.76 75.8229 1097.7 76.5781C1096.65 77.3073 1095.44 77.8932 1094.06 78.3359C1092.68 78.7786 1091.12 79 1089.38 79H1071.05C1070.09 79 1069.08 78.8958 1068.01 78.6875C1066.94 78.4531 1065.87 78.1016 1064.8 77.6328C1063.76 77.1641 1062.76 76.5651 1061.8 75.8359C1060.83 75.0807 1059.97 74.1823 1059.22 73.1406C1058.49 72.0729 1057.9 70.849 1057.46 69.4688C1057.02 68.0625 1056.8 66.487 1056.8 64.7422V18.9219H1066.95V64.7422C1066.95 65.9922 1067.34 66.9948 1068.12 67.75C1068.91 68.4792 1069.88 68.8438 1071.05 68.8438H1089.38C1090.65 68.8438 1091.64 68.4661 1092.34 67.7109C1093.07 66.9557 1093.44 65.9661 1093.44 64.7422V50.9922C1093.44 49.7161 1093.06 48.7266 1092.3 48.0234C1091.55 47.2943 1090.57 46.9297 1089.38 46.9297H1071.05V36.7734H1089.38C1090.34 36.7734 1091.35 36.8906 1092.42 37.125C1093.49 37.3333 1094.54 37.6719 1095.59 38.1406C1096.65 38.6094 1097.67 39.2214 1098.63 39.9766C1099.6 40.7057 1100.44 41.6042 1101.17 42.6719C1101.9 43.7135 1102.49 44.9245 1102.93 46.3047C1103.37 47.6849 1103.59 49.2474 1103.59 50.9922V64.7422ZM1159.57 64.7422C1159.57 67.3724 1159.09 69.599 1158.12 71.4219C1157.19 73.2188 1156 74.6901 1154.57 75.8359C1153.16 76.9557 1151.63 77.763 1149.96 78.2578C1148.29 78.7526 1146.74 79 1145.31 79H1112.73V68.8438H1145.31C1146.69 68.8438 1147.71 68.4922 1148.36 67.7891C1149.04 67.0859 1149.38 66.0703 1149.38 64.7422V56.1094H1112.73V45.875H1149.38V37.3203C1149.38 34.5339 1148.02 33.1406 1145.31 33.1406H1112.73V22.9844H1145.31C1147.06 22.9844 1148.62 23.2057 1150 23.6484C1151.38 24.0911 1152.59 24.6901 1153.63 25.4453C1154.7 26.1745 1155.61 27.0208 1156.37 27.9844C1157.12 28.9479 1157.73 29.9635 1158.2 31.0312C1158.67 32.0729 1159.01 33.1406 1159.22 34.2344C1159.45 35.3021 1159.57 36.3047 1159.57 37.2422V64.7422Z" fill="#2B3C3B"/>
</svg>
